<?xml version="1.0" encoding="UTF-8" standalone="no"?>
<!DOCTYPE svg PUBLIC "-//W3C//DTD SVG 1.1//EN" "http://www.w3.org/Graphics/SVG/1.1/DTD/svg11.dtd">
<svg xmlns="http://www.w3.org/2000/svg" version="1.1" xmlns:xlink="http://www.w3.org/1999/xlink" width="650px" height="3030.0px">
<style>text {font-family:PingFangSC-Regular, Microsoft YaHei, 'Hiragino Sans GB', Helvetica; ;font-size:14px;fill:#333;}</style>
	<text x="0" y="33">宿驾磨遭颤闪里兰循命肆首曾臣实场缓卖材绸朝炸尾吧橘猎检幅欺捉植阶扣到罐冬播览文偷颜费</text>
	<text x="0" y="79">刃妹鹿日找篮粥慧锁绩良裤松猜勉凉跨删肌米咳茅垒盒无止币阔偿柏掀康半芽镜枝册询熄配船扛</text>
	<text x="0" y="123">柳抱忠讲吓金万叼态疮吗劲丑疫肚胆舍埋则释桐晶妻鄙学候怎别罪饰陡丝链铲琴脂塌玉膀禁翻惯</text>
	<text x="0" y="162">分痒犯啊缎遥去败碎塞古斗萌涛符火兴但碰录池牺漠抵宜侨舒至辰基劫瞒填训站瓶自津餐草皆于</text>
	<text x="0" y="208">当邀咬量微骗舱韵机旬喝红典谢区业并挤蔬垮夫尸承取生恳星郑岭事悔绵逢诚冰柿窝狱免筑委烤</text>
	<text x="0" y="239">居证贞教扫秘答橡齐叮帽价七驻茄撇展停罗蜓林伶暑迅猴资赢液为执击个丸透隆壶沈晋框重孤旱</text>
	<text x="0" y="280">溪唇娘传一惰胁白储我袜祥絮临醒研滔佣阻枣境洪孩志株须剩吸桑且广拍起丛势爸颠乡穿捕竟匀</text>
	<text x="0" y="316">迟炮涉散玻课萄梦渔略原写石丁恶锈绢款头拆围跳欣财呢滋澡嚷订伞扯筋迎鸣袋倚语扰摘坛概舌</text>
	<text x="0" y="357">糠践描脖颈皇缠睬疏斧慨电扎疆蚂茧厂票种关妈形挣织油班心胀后婚鬼盏茂慰芦菜升编炊温率栽</text>
	<text x="0" y="390">衔族题圾钳含提傻建熔苦烦径裙蛋喉雷厚榆仗翼牵孙贴哨毙者制左股盗亭睛肿饶社部缴策冲凭隙</text>
	<text x="0" y="440">较昏巩耐恢刷路水士剂性墙厅剑顾灾声规惕解脆愧板旗嘱审谋标泥殿衣之减胜春塘赌樱亲废督弃</text>
	<text x="0" y="489">忌同础句宫卷非竹泄已您顿鞭惭肯缸整狮延臂视屈紧艇粱院数克繁摆厘剥莫摸黎洗湿糕记犹俗妥</text>
	<text x="0" y="528">然神畏式未服见勿近诱胡段纱套晚糟旨羡终培迷探蠢垄蝶线欧帘丹伤政宙条算迁莲翅困侧待券疾</text>
	<text x="0" y="563">域驳秋帖采胸乖耗颂骆障净盈疗吹暴桶断钓丙寻档倘拿保剖姥烂揉映摧令茎推梁耻崇这位充均肾</text>
	<text x="0" y="599">挨汉加会妖限府析村么俩致官锅善图由热城绒盘想征付漫呜胞棚泼牢天渡喘露退揪怜铃挪木眨卫</text>
	<text x="0" y="643">聋岗巾享搏件乓驼素励四税灭逮爱稍需淋沃病届遍湖旺筹艺诵哲车荒爽酸披导度悦乃安怨踏菌浑</text>
	<text x="0" y="692">律选晌渴压赔驱害姿椒逗朴炒土杜吴塑烟染躬凤浩谈镰慎绕宝佩恼脚秀眯守殃试响惜漂遇杠零斩</text>
	<text x="0" y="740">滚棉绍患陶贸谅虽库劳得啄绿球核弱药盲昌针兽瓣怠甜吩斯常谜蜘季附歉拳乳霸果辈猾亏欢余贪</text>
	<text x="0" y="771">舟拴烛振刀切甚装隔陪忘结添拐梨柔组赏毛梅咽腊送室初碍殊邻瓜恩巨缘纲汽他富慈钢歪请骑百</text>
	<text x="0" y="817">察奔多奥堪否丘获堵敏郎闯涂钱趋戚辱直驰源贤要愿转纪讽冤粒权栋肉买惨姐迈侵末存色模杆字</text>
	<text x="0" y="865">努徒地道彻涨评真列何丢侮众栏蚀拼行圣挽片裕顺阁森奉帜福罚齿次和羊牙惹宵禽纤姓经帮寒粘</text>
	<text x="0" y="897">抢决野贫移欠级倾烘冈楚愁孟笨始窗山革顶黑栗掌婶与谁人懒宪残键逃寇光惠瞎运馆坐吵甩葬拘</text>
	<text x="0" y="929">狭凯合约战蚕悠固饼谦翠赖世辞促宾惊狐张博责骂辆伴元傍望干剧疲糖托估棵暖攻设布朗貌旦冠</text>
	<text x="0" y="964">囊锐码虚叫雁捆抽身逝因处密衰洽民饲扬创监发突番刮钉椅寸歇灶醋壮架云毅避溜既庭窃亩魂寨</text>
	<text x="0" y="1011">枕总黄东将八逼匹鼻酿掉测堤稀下可泉垫忆蓄蔽歌束美玩销馋底灵肃拾交名根或袄奋搞差兆瞧蜡</text>
	<text x="0" y="1046">局称状用敞纷昂纠闻伯梯庸听脏妙界队尽伏恭尿彩本劣品倒献帆拖补菠其拉拢庙轮复亦眠腹鹰唉</text>
	<text x="0" y="1083">平庄另徐炼千浊换墨力遣游葱案抹悲软舅折前登唱正说毯滨号养虎渠肝鱼锋朵恒向开僵弓趴浙蹲</text>
	<text x="0" y="1127">照燕袖每维呀扁竖婆主屋靠虫轻代壳海抚改挺法扩奸阅碑索在效辛捏珍猛着格专军瓦忙幸盖麻飘</text>
	<text x="0" y="1164">雅遮通楼择搂岩唐帐点历比而鞠越屑杀手包忧脾治鸡仓蚁谣竭仅秧觉仁盛湾焦丽偶垃双凶羞口眼</text>
	<text x="0" y="1197">污迫按晨伙袍苏愤沫景音剪爹畅匠激管捞误永戏踪舰稳摄拣智扔六姑昼夸警谊肥尺荷帅旅刚斑晃</text>
	<text x="0" y="1241">的氧邪年俊箱敲痰罩西认宇怒背蜜伍园嗓骄范箩做涝亮艰鲁司镇贯哪扮阿午锯汇耀筒医兔咸仍五</text>
	<text x="0" y="1281">吞厨童控肢浓旧损份回娱峡坟龄叠佛家穷匆宅团召哀笛歼蝴浮熟完论携械给胳介营岔井第南嫁庆</text>
	<text x="0" y="1318">枯雄骨器必汗艳笔嘴内仙锤除使乱塔办喂捎牧愚吨榜宋董症饮呈再蛛很尘虾惑协蛙签户淹支滥矿</text>
	<text x="0" y="1368">皮盐诊淘闭亚累领稻苍狡破坡怪泪覆方挑进坦薄糊懂堂步躲穗棕寄绳产桃墓轰霜萝验凝深嘉圆疤</text>
	<text x="0" y="1415">距倦孔姨属子早像共注燥容额饿拨厌挖抄触程授犁计杨来习失仇祸膨互酒成最还动牛葛阳员躺炉</text>
	<text x="0" y="1450">易诸暮义够物威寺构辟廊矩岁竿酷胃昨毒辅售江阀短危茫斤蓬立勾射意俱助祝入魔党王搬稼泡沉</text>
	<text x="0" y="1494">岂霞芹坝紫粗悉国波北蔑料县乙台穴讯伐乏遗绝赴冶速狠筝三旁防识放邮宗轨缺途独箭九梳受快</text>
	<text x="0" y="1536">荡乘豆章蛮强嫩据巴夹虹休圈两俘让泳钟卵恨返冒磁麦堡留吐妄己混群空蹈任排膛骡谎详欲洒颗</text>
	<text x="0" y="1575">层爷滑傲雪喷胖锻倍君练述惩薪芳周客饱垂锦魄引攀议籍忽哗环疯峰马跟虑占陷沿愈杏华也类甘</text>
	<text x="0" y="1608">变稠航宁旋叹际屿嚼演抬腐煌岸显螺简狗吊蕉馒绪货猫岛窑叉榨芬归假席蛾接随滤扑低巷母屡亡</text>
	<text x="0" y="1648">缝角些朽掏幕漆溉晴网潜贝太求久竞拌影知宽批今斜裳遵睡鉴抖递坑住轧弯辜浇恰脸腰特化若却</text>
	<text x="0" y="1680">奏拦喜骤块修粮锡武了消怕辫窜走宰挂港狼贡亿抗咐僚烧跌葡几膝沟划企跃柱灰蝇瑞普弊流如痕</text>
	<text x="0" y="1730">嫌陈殖腿摩杯伟她汁赛坏父誓尚傅死秆铅才畜趣辩各尼定刊似狸赞李出输摊酱赚长姻陵锣礼泻胶</text>
	<text x="0" y="1767">感项灌精话隶京鹊融闸纸冷书芒示萍期预虏卜允香踢优掩债鹅桥担血唤脊茶闷树吼刘健屠巡泛副</text>
	<text x="0" y="1803">花师奶许璃你垦告叶词央倡侄看抛汪商薯盟碌信德毁大某搭皂鸟笑喇足叙二榴誉座孕浴型刻替膏</text>
	<text x="0" y="1853">顷悄该愉筐敬难小乎没迹扭勇版雾轿泰全坚俯驶友盾译锹店所撞阵饥姜调讨甲葵辉斥钩哥嗽蛇是</text>
	<text x="0" y="1884">咏例忍绘表收滩盆犬把盯究荐续操厕碧腾静仆辽衡挎尖节申渗洁银市依巧持那崖爆肩昆唯应术继</text>
	<text x="0" y="1933">佳贼驴艘及耳饭慕耍灿醉馅削样言铺诉般系仰具险撒牲朋脱谨络劝报值争仪荣夕灯拔涌援戴潮高</text>
	<text x="0" y="1977">袭泽裂增只有益雹狂况救妇篇负趟粪贿掘科卧暗乐吃龙等侦晒陕弹旷砌追奖纯砖弄壤公耽绑刑女</text>
	<text x="0" y="2010">暂秒苹扇毫技赤单蓝租不兄打冻夏炎聪坊焰偏谷丈浸悼统积考兵炕踩体序蚊蜻蜂集乒肤稿观啦棋</text>
	<text x="0" y="2059">端截悬捐职恐矮肺闹润硬远吉睁蒸纵查砍禾从腔拜往离月思罢扒曲摔边默又熊爬撑理串访购施柄</text>
	<text x="0" y="2099">裹味辣挡更铜柴瘦川仔窄缩勤廉锄渐念宣盼面启怀顽确时息乞敌指呼雕门桌割址晓筛钻肠风贱都</text>
	<text x="0" y="2149">厦招槽耕朱尊铁眉页先碗郊扶投载桂凡跑州新叛衫煤钞降蹦浆烈爪现护孝抓屯带摇工挥晕仿壁诞</text>
	<text x="0" y="2188">惧哈撕握超悟捷蹄什弟贺沾功活参臭聚夺蒙擦芝育好哄赠凑沙贩秤淡厉青河弦便煎奴隐杰绣梢纳</text>
	<text x="0" y="2225">田校中鸽秩就烫叨陆笼故以匙予霉搁铸派咱乔雨逆凳外被准猪浪役严错侍阴作异谱哭疼私洋藏宏</text>
	<text x="0" y="2258">封秃剃鼠插质纽纺苗彼情押帝腥杂判务诗鞋娃疑跪煮英间尝贵满妨上老躁伸房喊反丧娇农适桨氏</text>
	<text x="0" y="2291">浅问右床括纹恋此十卸搜造粉拒痛僻羽洲柜赶挠脉闲嫂毕棍象明对赵能希画匪慌泊省落叔滴贷街</text>
	<text x="0" y="2331">少崭洞御飞膜备堆借牌尤哑著炭矛珠雀急枪极勺蒜鲜鸦裁达逐催即慢丰劈鼓食笋男捧细趁怖宴刺</text>
	<text x="0" y="2377">豪横气膊沸棒儿脑翁幻奇衬搅槐卡震汤史鸭饺祖揭皱违清勒利读燃舞钥供拥伪兼济目过乌呆寿幼</text>
	<text x="0" y="2413">菊捡漏酬置绞辨渣它相连俭们戒掠联敢夜撤举龟</text>
</svg>