<?xml version="1.0" encoding="UTF-8" standalone="no"?>
<!DOCTYPE svg PUBLIC "-//W3C//DTD SVG 1.1//EN" "http://www.w3.org/Graphics/SVG/1.1/DTD/svg11.dtd">
<svg xmlns="http://www.w3.org/2000/svg" version="1.1" xmlns:xlink="http://www.w3.org/1999/xlink" width="650px" height="3030.0px">
<style>text {font-family:PingFangSC-Regular, Microsoft YaHei, 'Hiragino Sans GB', Helvetica; ;font-size:14px;fill:#333;}</style>
	<text x="0" y="46">耻彩录阔儿找召姜砌斑卜禽思架式谜席饲兔鄙鹿未泰何辣匆揉笛怪姨简管跌开雄匙罗忌楼宪答蠢</text>
	<text x="0" y="93">垫限愤胖挂子槐去咳香至吞娘挽唉页荷翠冒岛述丝乏倒曲屯披搁箱长缸迫画帅量刘夏译顽稠针尖</text>
	<text x="0" y="124">府久泻舍身覆奴蓬奉华面塔升正嗽存宙折糠苍仓决欲紫幸编张钟修歪凝亭猾关裕扑舞楚惨抢体脆</text>
	<text x="0" y="169">使掘塘辛什贸旷哀日絮烟慢朴线搂遍壁积熊厕阿口地渔继下背头尽兽送歼租吵眨薪盆僵惑刀捞都</text>
	<text x="0" y="216">膝上二仔漆毛凯企仰旅炮迹波乒赶足偶炉腹打鸣捎屿射仍询坦险妇宴声逗况央贫似乓倘单捡午乳</text>
	<text x="0" y="250">砍骄森休暮版胜读橡皇谨本买炎铁谱威摩蛾参扯拘辟究念桶缴忆归杀残乃诸特悟胁五昂恒肿房旋</text>
	<text x="0" y="285">药报切飞齿急侍堵网税别悦焦这晶插庭先里庄澡疆集估厦取泳矛砖酷剪脾挺料窃碰岁衫豪绣牢趟</text>
	<text x="0" y="316">蔽定基冈黄呜理战受勉厨资促软柱淹榨字复奔入把辉妖踩贡每尸问熔侦嫂葱给爽拜煌娃佣励杠捆</text>
	<text x="0" y="355">根炸闭唐牛颂溉操蚂近烤瓦侄咬剖狮尼冶再器佳虫壶衬款览扎疯狂君欢扛互众奖赏贪清焰袋脱晨</text>
	<text x="0" y="387">钩泥算篇坏脸职亮毁公化称炼丁超宾茎劈桨刻阵造谊巾甩接待殃牙仿煎杏陵恐港茄混拾枪勺撒按</text>
	<text x="0" y="425">酿甜危姿陈苹骤心盐筐禾诱导铸收激门制质畅塞灭交鲁逮柔龄雀厘锯揪遇鼠仅滋灿铜条爆嫌火跨</text>
	<text x="0" y="471">经虾布挥遵亦军之订嫁较递元烫艺喇个懒绒恶托习溜叶喝柴丛虑围荡趴狡裹犁许渡负傲堆梁邮稻</text>
	<text x="0" y="504">锻喷用盈客踏院鸟气琴构级漠蒙肥坛向挑迎姻消尚慌运骗意虚症斧福艇德产骑羡饺曾浙绘暂倡绳</text>
	<text x="0" y="539">考穗寄吊得栏愁详引舟茧狱亡猴介圆装水腥尺委瞒例库泼叹差洗丰两饶冲锄行苏周稳银金咽恭胀</text>
	<text x="0" y="580">废捧霜袖闹巡绍情书肆咏包汪娇逼潜到哭另评发抵秩伤甚卖国遣挣旺帐办慈罚风肉友携膨普桃敢</text>
	<text x="0" y="627">外真航轨宗拆岗散一痰帜阴肠劝痒祝碧流贝距穿慰商它拼虽怠钢珠割亏拣追处芒吹黑俩查弦准济</text>
	<text x="0" y="670">调极昌主捐燃巴荒船容窑改累润精任洪裳肌蕉闪旦搏诗籍垒脂我同米蝴赌命奇探桑竖惹婆温弯临</text>
	<text x="0" y="708">击承梨忙抗翅羞研轰柄突保汽格唯橘柜欧员揭阁景腐渣践幼选远圾观丧对脑县撑显除筒兼困吨吧</text>
	<text x="0" y="743">磨饼盛阶暑叨所察师偷煤谈喜帆当机烈藏赔六际鞭始赤鹊葛赛现耀业祥空图补扭臂孟锦宽秘瘦劫</text>
	<text x="0" y="775">平损段螺但躬宅放惧纹萄锈端腿民健均些伍映辱浩爹伙虎胡肤乱难晃协轿甘阅偏墙堪系付锁岩纪</text>
	<text x="0" y="813">岔皂班够闲春肾代弃带芦苦十锡糖穴援隆狭新遗低违袍序静享市效早的贱峡相蛮党务缘疾疲离怖</text>
	<text x="0" y="854">债眠摄涨会怀致番河李卷浆模燕要驳期获拳统礼推蚕趋度蛋辨扫粮痕啦错膛候杰挖杨尘雨栋素三</text>
	<text x="0" y="885">匀能拌刃是朝北类乌建呆反辰跟缓政纲趁居判缺首兵年跃昆浮双绢瓶泛母顺碌径姥技熟案钱梦晌</text>
	<text x="0" y="928">圈层恳又剧汗练百深币疤颠左青堂义富暗抽索依闻趣检眼易暴馅耳貌矿并控坐马盖罪朽烘疫吴如</text>
	<text x="0" y="965">劣副手囊剃狐刑敏饭截拐棒知组刺蛇讽寇垦盏椅怨椒词聋绩屠贯秋省句茫魂吐脊兴好警骂韵让棍</text>
	<text x="0" y="1002">洲伐蹲解洒牺色将转竞狸娱贴叼歉采杜变腰侮没天倦落与朋征几筋渗抚恨审姑材你境帘桂笔功萌</text>
	<text x="0" y="1041">证纽略爬野作抱性标形振孔象乙荣最票崇晚葬亲直猪识粉纱载也拦盼石族乎虹掉铅悉舅输攻惊斜</text>
	<text x="0" y="1077">丢冷氏偿辅鼓婶庙刷室昏谦漏挎适盒搬涉就膀瓣蜂裂芽唇刊烛志筹浇膊烦狼其由谋震蹈既艘丸扩</text>
	<text x="0" y="1110">味玻宿试瞧盟自雅池广约细炕敬了守臭庆阳骆榆桐醉盲眯随州染肢阻私繁巩沸触秆异妥丹仁仆她</text>
	<text x="0" y="1155">驼拖括位神永窝猜魄勤移怒诵被蜘赴街缎岭葵脏薯欠花信雪蒜呼岸迅鞋成霉卵很压畜内连数棋视</text>
	<text x="0" y="1190">巨耐顶竿莫僻结摇第那秒误聚垂灰弓浪捏朵枕廉晒惕炭士四驰欺添蛛纵荐王描嘉生滤通人块伸剑</text>
	<text x="0" y="1224">酬犬世择伏专旧泄睬确轮穷丙持械界朱愈然队筝草浸寺己竹肝雹钉记董饮鸽艰伴父幅更甲蝇兰影</text>
	<text x="0" y="1256">替满炒竟鱼横晋蒸忠底灵靠胆庸祸伟令峰文龙帖招已救铃留冻月啊躲熄毅陷分梯攀验树悬该拢闸</text>
	<text x="0" y="1302">免腊饱柿桌兆防邻节址筛扁愧共各访绵若漫车夸钻来毯锤驶睁概陡翼寨站艳农屈妨范惭必哈萍虏</text>
	<text x="0" y="1335">吓袜克恢妙夹骡传慎及融乐执哄骨崖妈毕从路座后拔耽狗拒删洋填璃宵膏誉望木在愚绕隐稀降次</text>
	<text x="0" y="1376">女吸聪姐束磁型们希奸削粗浅闷梳便纳饿沙吉可脖费部贺份干衡钥返惯热还告绿宇联帽纠武硬涌</text>
	<text x="0" y="1420">回滚献喉汤煮耍粪死蔬慨懂驾益九哑酸箭窄呈辈牌态粒豆夕道悼完件和夺踪渐镇挪智断臣陕俘净</text>
	<text x="0" y="1465">则蝶迁梅灾吃快储应册恰予往晕局污诉科斥举史链即倾匹侨梢透莲镜跑糕额飘搜轻滴盗村誓环裙</text>
	<text x="0" y="1505">姓孕台馆抖咐城矩工旗乔题晴纯逆教果古程醒施唤律厂俗惰息绸白牲乞罩秀盾划舒蔑纸咱碗强妹</text>
	<text x="0" y="1545">嘴登杂不著释傍烧燥秃想借供充辞徒丑责扔设鬼遭恼派串斤食钳殿滔策躺坝旨鹰吩列论护猫担叮</text>
	<text x="0" y="1591">表淡晓卸助末绞玩弊孤码菊垃而叛犯坡贞墨谎织英笼油播符铲斗速感御红悲寒宰枝原泽扰巧眉络</text>
	<text x="0" y="1635">边医勿中谷加您劳养樱洽榴争官善戒云狠柳故惠名少良稼轧翻哲愿搭塌奋绝血进投指肩柏假辜灯</text>
	<text x="0" y="1667">寻密氧沉沟伶郎封盯株绪具购率诚钓汁鹅监示比宜训重薄厚疮间泪蚀键角笑蓝贤服摔停事惜餐扒</text>
	<text x="0" y="1708">钞余佩颈隔核乖寿沃茶盘住鼻扮谢奶跳启剥抛仗否园言堡滥丘塑凶法皮垮源星泡失榜蹦邪议祖唱</text>
	<text x="0" y="1740">治粱鉴菜赚延鸭侵捉时呢框陶仇哪纺绑叉诊辽羊八泊摆撇顾越浑见滩垄域督掀瓜紧析肃障避做腾</text>
	<text x="0" y="1783">阀湾犹抹抓败掠铺总凭恋牵壳逐驱营蜜安床种场冰且傅帮栗漂叔乘猎蜻悄棕券号电潮础忽泉剂刮</text>
	<text x="0" y="1814">笋东擦全鞠稿睡屋迷方皆彻利怕迈默逃篮滑京止音炊写扣南小贩雁卫宝提吗纷孩傻章帝鲜球郊逢</text>
	<text x="0" y="1848">破土置廊冠右高物握般疼响价撕旬舌拉听牧大衔湖松贿掩力颤售肯痛丽坟需敲滨含努畏魔匪博贼</text>
	<text x="0" y="1889">尿半拨此杆禁糟幕术仪冤佛卧短缩镰罢展掏过拿片幻值催蜡尤翁活俊独忍赠套瞎照须像课斩霸却</text>
	<text x="0" y="1929">区哗嘱蜓涝缠学涛无逝摘千搅暖江碍板妄袭司粥叙初跪锣巷湿匠灶规菠液林侧季罐鸦目婚麻植宫</text>
	<text x="0" y="1971">途剩今饰拍堤旱躁竭病换前申步倚屑瑞窜凡哥汇隙孝尾萝财项预凳勾疗凤衰戏求芳授辩排怎芹烂</text>
	<text x="0" y="2011">糊爷枣宋淋沾渠悔喂浓歌凑毫疏哨摸蛙苗创岂常醋弟寸拴俱实亩非慕男退笨渴僚陆缝川者抄锹夫</text>
	<text x="0" y="2042">乡洁棉于颗吼戚走肚势权爸敌惩立坑太弱亚宣筑零箩计颜旁货猛嚼患看雷屡汉桥蓄壮减严辆井话</text>
	<text x="0" y="2075">闯啄爪挤粘饥领胞配珍殖摊海备循赖育洞埋语胳槽等兄恩杯黎馒多殊沈附万档请家品搞顷亿辫整</text>
	<text x="0" y="2117">掌坚社捕弄彼喘仙合押脉遥枯讲允撞届摧谣支厉孙腔他团驻爱裤有厅碎增达赢谅诞害光销叫酒演</text>
	<text x="0" y="2152">西起嫩历属测叠锐踢宁芝酱伪忘浊嗓皱灌弹优拥户胶郑为悠蚊微津芬睛邀胃挡喊捷撤游矮出锋说</text>
	<text x="0" y="2186">尊耗奏校童秧俭羽美扬康茅嚷斯毒坊讨抬注终勇怜沫葡锅典点毙奥遮认续田动麦厌愉墓明疑陪山</text>
	<text x="0" y="2230">淘签徐慧茂因或馋迟肺露秤涂袄沿贵尝驴卡役倍朗扇伯赵胸着俯凉衣只劲以浴崭齐才咸店裁菌昨</text>
	<text x="0" y="2271">敞稍昼据壤状固碑窗龟革伞圣舰占老维扶批雾赞觉欣挠溪栽棵妻玉宏贷忧脚挨隶蚁培戴么呀刚顿</text>
	<text x="0" y="2312">舱歇勒霞讯夜蹄某纤丈谁膜样群棚雕耕七股鸡冬</text>
</svg>